<?xml version="1.0" encoding="UTF-8"?> <svg xmlns="http://www.w3.org/2000/svg" width="13" height="12" viewBox="0 0 13 12" fill="none"><g clip-path="url(#clip0_1918_11479)"><path d="M6.5 0C3.19146 0 0.5 2.69146 0.5 6C0.5 9.30854 3.19146 12 6.5 12C9.80854 12 12.5 9.30854 12.5 6C12.5 2.69146 9.80854 0 6.5 0ZM6.5 11.2952C3.57987 11.2952 1.20478 8.92013 1.20478 6C1.20478 3.07987 3.57987 0.704777 6.5 0.704777C9.42013 0.704777 11.7952 3.07987 11.7952 6C11.7952 8.92013 9.42013 11.2952 6.5 11.2952Z" fill="#53AE48"></path><path d="M8.34026 6.84024C8.14527 6.84024 7.98787 6.99764 7.98787 7.19263C7.98787 7.80265 7.32069 8.29835 6.50001 8.29835C5.67934 8.29835 5.01215 7.80187 5.01215 7.19263C5.01215 6.99764 4.85475 6.84024 4.65976 6.84024C4.46477 6.84024 4.30737 6.99764 4.30737 7.19263C4.30737 8.19106 5.29093 9.00312 6.50001 9.00312C7.7091 9.00312 8.69265 8.19106 8.69265 7.19263C8.69265 6.99764 8.53525 6.84024 8.34026 6.84024Z" fill="#53AE48"></path><path d="M4.6253 5.80346C5.07595 5.80346 5.44128 5.43813 5.44128 4.98748C5.44128 4.53683 5.07595 4.17151 4.6253 4.17151C4.17465 4.17151 3.80933 4.53683 3.80933 4.98748C3.80933 5.43813 4.17465 5.80346 4.6253 5.80346Z" fill="#53AE48"></path><path d="M9.12895 5.30035C9.3014 4.884 9.10369 4.40668 8.68734 4.23422C8.271 4.06177 7.79368 4.25948 7.62122 4.67583C7.44876 5.09217 7.64648 5.56949 8.06282 5.74195C8.47917 5.9144 8.95649 5.71669 9.12895 5.30035Z" fill="#53AE48"></path></g><defs><clipPath id="clip0_1918_11479"><rect width="12" height="12" fill="white" transform="translate(0.5)"></rect></clipPath></defs></svg> 