<?xml version="1.0" encoding="UTF-8"?> <svg xmlns="http://www.w3.org/2000/svg" width="13" height="12" viewBox="0 0 13 12" fill="none"><g clip-path="url(#clip0_1918_11448)"><path d="M6.5 0C3.19146 0 0.5 2.69146 0.5 6C0.5 9.30854 3.19146 12 6.5 12C9.80854 12 12.5 9.30854 12.5 6C12.5 2.69146 9.80854 0 6.5 0ZM6.5 11.2952C3.57987 11.2952 1.20478 8.92013 1.20478 6C1.20478 3.07987 3.57987 0.704777 6.5 0.704777C9.42013 0.704777 11.7952 3.07987 11.7952 6C11.7952 8.92013 9.42013 11.2952 6.5 11.2952Z" fill="#D0B73A"></path><path d="M4.6253 5.80346C5.07595 5.80346 5.44128 5.43813 5.44128 4.98748C5.44128 4.53683 5.07595 4.17151 4.6253 4.17151C4.17465 4.17151 3.80933 4.53683 3.80933 4.98748C3.80933 5.43813 4.17465 5.80346 4.6253 5.80346Z" fill="#D0B73A"></path><path d="M8.37469 5.80346C8.82534 5.80346 9.19067 5.43813 9.19067 4.98748C9.19067 4.53683 8.82534 4.17151 8.37469 4.17151C7.92404 4.17151 7.55872 4.53683 7.55872 4.98748C7.55872 5.43813 7.92404 5.80346 8.37469 5.80346Z" fill="#D0B73A"></path><path d="M8.37468 7.56931H4.62448C4.42949 7.56931 4.27209 7.72671 4.27209 7.92169C4.27209 8.11668 4.42949 8.27408 4.62448 8.27408H8.37468C8.56967 8.27408 8.72707 8.11668 8.72707 7.92169C8.72707 7.72671 8.56967 7.56931 8.37468 7.56931Z" fill="#D0B73A"></path></g><defs><clipPath id="clip0_1918_11448"><rect width="12" height="12" fill="white" transform="translate(0.5)"></rect></clipPath></defs></svg> 